<?xml version="1.0" encoding="UTF-8"?>
<!DOCTYPE svg PUBLIC "-//W3C//DTD SVG 1.1//EN" "http://www.w3.org/Graphics/SVG/1.1/DTD/svg11.dtd">
<svg xmlns="http://www.w3.org/2000/svg" version="1.1" width="512px" height="512px" style="shape-rendering:geometricPrecision; text-rendering:geometricPrecision; image-rendering:optimizeQuality; fill-rule:evenodd; clip-rule:evenodd" xmlns:xlink="http://www.w3.org/1999/xlink">
<g><path style="opacity:0.976" fill="#000000" d="M 175.5,43.5 C 220.313,39.4801 257.147,54.4801 286,88.5C 293.583,99.9982 300.917,111.665 308,123.5C 309.341,126.022 310.174,128.689 310.5,131.5C 331.342,132.008 342.342,142.675 343.5,163.5C 342.342,184.325 331.342,194.992 310.5,195.5C 307.09,207.411 299.423,215.244 287.5,219C 278.167,219.333 268.833,219.667 259.5,220C 249.841,231.828 237.841,240.328 223.5,245.5C 223.173,250.544 223.506,255.544 224.5,260.5C 261.615,268.459 286.782,290.126 300,325.5C 301.317,330.1 302.317,334.766 303,339.5C 303.5,360.831 303.667,382.164 303.5,403.5C 351.5,403.5 399.5,403.5 447.5,403.5C 448.759,392.833 450.093,382.167 451.5,371.5C 446.245,367.751 441.412,363.418 437,358.5C 430.058,346.396 429.724,334.063 436,321.5C 437.141,319.391 438.641,317.558 440.5,316C 433.54,303.914 426.707,291.748 420,279.5C 407.371,288.788 394.205,297.288 380.5,305C 371.427,325.374 355.76,334.04 333.5,331C 311.568,324.315 301.068,309.482 302,286.5C 307.996,260.908 324.162,249.074 350.5,251C 376.19,237.488 402.19,224.488 428.5,212C 452.531,208.032 464.031,218.199 463,242.5C 461.462,248.412 458.295,253.245 453.5,257C 447.167,261.333 440.833,265.667 434.5,270C 441.46,282.086 448.293,294.252 455,306.5C 474.789,304.639 488.122,312.973 495,331.5C 497.868,352.799 489.035,366.133 468.5,371.5C 467.312,381.859 465.979,392.192 464.5,402.5C 488.244,407.329 498.078,421.662 494,445.5C 490.099,456.401 482.599,463.568 471.5,467C 327.5,467.667 183.5,467.667 39.5,467C 20.9343,460.395 13.101,447.228 16,427.5C 19.1667,415 27,407.167 39.5,404C 52.4957,403.5 65.4957,403.333 78.5,403.5C 78.3334,384.497 78.5001,365.497 79,346.5C 85.4686,299.694 111.802,271.028 158,260.5C 158.829,255.467 158.662,250.467 157.5,245.5C 143.732,239.9 132.065,231.4 122.5,220C 113.5,219.667 104.5,219.333 95.5,219C 83.2733,215.774 75.2733,208.107 71.5,196C 47.4777,193.153 36.9777,179.653 40,155.5C 44.5044,139.333 55.1711,131 72,130.5C 78.719,118.068 85.719,105.735 93,93.5C 113.766,65.7012 141.266,49.0345 175.5,43.5 Z M 190.5,59.5 C 227.405,60.7819 256.405,76.4485 277.5,106.5C 271.528,107.664 265.528,107.83 259.5,107C 235.27,80.097 205.27,70.4303 169.5,78C 150.827,82.8346 135.16,92.5012 122.5,107C 116.5,107.667 110.5,107.667 104.5,107C 125.493,77.3354 154.16,61.502 190.5,59.5 Z M 191.5,91.5 C 230.06,94.8859 253.56,115.553 262,153.5C 264.849,188.306 250.682,213.473 219.5,229C 186.516,240.546 158.349,233.379 135,207.5C 115.406,177.626 115.74,147.959 136,118.5C 150.863,101.818 169.363,92.8177 191.5,91.5 Z M 66.5,148.5 C 67.8333,148.5 69.1667,148.5 70.5,148.5C 70.5,158.5 70.5,168.5 70.5,178.5C 59.3144,176.485 54.8144,169.818 57,158.5C 59.0223,153.98 62.189,150.647 66.5,148.5 Z M 311.5,148.5 C 320.808,149.141 325.808,154.141 326.5,163.5C 325.808,172.859 320.808,177.859 311.5,178.5C 311.5,168.5 311.5,158.5 311.5,148.5 Z M 435.5,227.5 C 444.916,228.009 448.082,232.675 445,241.5C 424,255.833 403,270.167 382,284.5C 380.201,275.234 376.034,267.234 369.5,260.5C 391.561,249.47 413.561,238.47 435.5,227.5 Z M 175.5,250.5 C 185.5,251.809 195.5,251.809 205.5,250.5C 209.486,266.995 203.153,274.828 186.5,274C 177.107,269.037 173.44,261.203 175.5,250.5 Z M 119.5,298.5 C 144.663,335.057 178.663,346.89 221.5,334C 239.035,326.632 252.701,314.798 262.5,298.5C 266.544,301.543 269.877,305.209 272.5,309.5C 246.296,347.187 210.629,361.021 165.5,351C 141.842,344.17 123.509,330.337 110.5,309.5C 113.145,305.524 116.145,301.857 119.5,298.5 Z"/></g>
</svg>
