<?xml version="1.0" standalone="no"?>
<!DOCTYPE svg PUBLIC "-//W3C//DTD SVG 1.0//EN" "http://www.w3.org/TR/2001/REC-SVG-20010904/DTD/svg10.dtd">
<svg xmlns="http://www.w3.org/2000/svg" xmlns:xlink="http://www.w3.org/1999/xlink" id="body_1" width="200" height="200">

<g transform="matrix(0.390625 0 0 0.390625 0 0)">
	<g>
        <path d="M62.5 62.5C 66.6463 61.353 70.9796 61.1864 75.5 62C 71.1794 62.499 66.8461 62.6657 62.5 62.5z" stroke="none" fill="#000000" fill-rule="nonzero" />
	</g>
	<g>
        <path d="M435.5 62.5C 439.646 61.353 443.98 61.1864 448.5 62C 444.179 62.499 439.846 62.6657 435.5 62.5z" stroke="none" fill="#000000" fill-rule="nonzero" />
	</g>
	<g>
        <path d="M53.5 63.5C 55.9664 62.3659 58.633 62.1993 61.5 63C 58.854 63.4974 56.1873 63.6641 53.5 63.5z" stroke="none" fill="#000000" fill-rule="nonzero" fill-opacity="0.007843138" />
	</g>
	<g>
        <path d="M449.5 63.5C 451.966 62.3659 454.633 62.1993 457.5 63C 454.854 63.4974 452.187 63.6641 449.5 63.5z" stroke="none" fill="#000000" fill-rule="nonzero" fill-opacity="0.007843138" />
	</g>
	<g>
        <path d="M89.5 64.5C 92.2869 65.4767 95.2869 65.81 98.5 65.5C 113.087 67.8546 127.587 71.188 142 75.5C 143 75.1667 144 74.8333 145 74.5C 172.669 83.0881 198.503 96.2548 222.5 114C 221.346 114.914 221.513 115.747 223 116.5C 223.414 116.043 223.914 115.709 224.5 115.5C 225.831 116.592 226.664 117.926 227 119.5C 227.718 118.549 228.551 118.383 229.5 119C 230.094 120.982 231.26 122.816 233 124.5C 233.718 123.549 234.551 123.383 235.5 124C 236.223 126.811 238.056 129.311 241 131.5C 241.718 130.549 242.551 130.383 243.5 131C 247.408 134.177 250.241 137.677 252 141.5C 252.333 141.167 252.667 140.833 253 140.5C 253.689 141.357 254.522 142.023 255.5 142.5C 256.425 141.359 257.259 141.359 258 142.5C 260.099 138.342 263.266 134.508 267.5 131C 268.449 130.383 269.282 130.549 270 131.5C 272.944 129.311 274.777 126.811 275.5 124C 276.449 123.383 277.282 123.549 278 124.5C 279.74 122.816 280.906 120.982 281.5 119C 283.095 119.617 284.428 119.284 285.5 118C 284.396 116.869 284.729 116.035 286.5 115.5C 287.675 116.855 288.675 116.688 289.5 115C 289.167 114.667 288.833 114.333 288.5 114C 303.89 102.54 319.557 93.2068 335.5 86C 336.899 85.4054 338.232 85.5721 339.5 86.5C 341.167 85.6667 342.833 84.8333 344.5 84C 343.833 83.6667 343.167 83.3333 342.5 83C 345.368 81.0839 348.368 80.5839 351.5 81.5C 353.271 80.9646 353.604 80.1313 352.5 79C 356.958 77.3535 361.458 75.8535 366 74.5C 367 74.8333 368 75.1667 369 75.5C 375.768 73.433 382.601 71.5996 389.5 70C 388.167 69.6667 386.833 69.3333 385.5 69C 394.687 68.9263 403.687 67.7596 412.5 65.5C 415.713 65.81 418.713 65.4767 421.5 64.5C 433.508 63.4218 445.508 63.4218 457.5 64.5C 457.667 103.161 458.167 103.161 459 64.5C 459.5 73.1603 459.666 81.8269 459.5 90.5C 499.478 90.5011 499.478 91.1678 459.5 92.5C 469.812 93.4986 480.145 93.8319 490.5 93.5C 490.5 206.167 490.5 318.833 490.5 431.5C 211.834 431.667 211.834 432.167 490.5 433C 420.287 432.841 350.287 433.675 280.5 435.5C 280.167 430.167 279.833 430.167 279.5 435.5C 278.662 435.842 278.328 436.508 278.5 437.5C 277.167 438.167 277.167 438.833 278.5 439.5C 278.573 441.027 277.906 442.027 276.5 442.5C 276.167 441.167 275.833 441.167 275.5 442.5C 274.167 442.833 274.167 443.167 275.5 443.5C 273.853 445.326 271.853 446.66 269.5 447.5C 268.167 446.167 266.833 446.167 265.5 447.5C 257.084 447.325 248.751 447.325 240.5 447.5C 238.833 446.333 237.167 445.167 235.5 444C 236.654 443.086 236.487 442.253 235 441.5C 234.333 442.833 233.667 442.833 233 441.5C 233.07 438.202 232.403 434.869 231 431.5C 230.667 432.833 230.333 434.167 230 435.5C 160.38 433.671 90.5465 432.838 20.5 433C 299.166 432.167 299.166 431.667 20.5 431.5C 20.5 318.833 20.5 206.167 20.5 93.5C 30.8548 93.8319 41.1881 93.4986 51.5 92.5C 11.5222 91.1678 11.5222 90.5011 51.5 90.5C 51.3336 81.8269 51.5002 73.1603 52 64.5C 52.833 103.161 53.333 103.161 53.5 64.5C 65.4918 63.4218 77.4918 63.4218 89.5 64.5zM87.5 84.5C 87.5 84.1667 87.5 83.8333 87.5 83.5C 93.0687 83.376 98.402 84.0427 103.5 85.5C 100.833 85.5 98.1667 85.5 95.5 85.5C 93.0521 84.5269 90.3854 84.1936 87.5 84.5zM423.5 83.5C 423.5 83.8333 423.5 84.1667 423.5 84.5C 420.615 84.1936 417.948 84.5269 415.5 85.5C 412.833 85.5 410.167 85.5 407.5 85.5C 412.598 84.0427 417.931 83.376 423.5 83.5zM87.5 84.5C 89.9479 85.4731 92.6146 85.8064 95.5 85.5C 97.9479 86.4731 100.615 86.8064 103.5 86.5C 105.265 87.4614 107.265 87.7947 109.5 87.5C 110.919 88.4511 112.585 88.7845 114.5 88.5C 115.833 89.8333 117.167 89.8333 118.5 88.5C 120.415 88.2155 122.081 88.5489 123.5 89.5C 122.127 89.3433 120.793 89.51 119.5 90C 122.688 90.7554 125.855 91.5887 129 92.5C 129.765 92.4301 130.265 92.0967 130.5 91.5C 132.099 91.2322 133.432 91.5655 134.5 92.5C 133.448 92.3505 132.448 92.5172 131.5 93C 133.436 93.813 135.436 94.313 137.5 94.5C 138.568 95.4345 139.901 95.7678 141.5 95.5C 142.78 96.9313 144.447 97.5979 146.5 97.5C 147.209 98.404 148.209 98.7373 149.5 98.5C 150.209 99.404 151.209 99.7373 152.5 99.5C 153.93 100.537 155.597 101.204 157.5 101.5C 158.78 102.931 160.447 103.598 162.5 103.5C 164.426 105.293 166.759 106.293 169.5 106.5C 171.181 108.008 173.181 109.008 175.5 109.5C 176.514 110.674 177.847 111.34 179.5 111.5C 179.842 112.338 180.508 112.672 181.5 112.5C 183.336 114.588 185.669 115.921 188.5 116.5C 188.842 117.338 189.508 117.672 190.5 117.5C 190.973 118.906 191.973 119.573 193.5 119.5C 194.659 121.25 196.326 122.25 198.5 122.5C 198.973 123.906 199.973 124.573 201.5 124.5C 201.973 125.906 202.973 126.573 204.5 126.5C 205.262 128.262 206.596 129.262 208.5 129.5C 208.973 130.906 209.973 131.573 211.5 131.5C 211.5 132.167 211.833 132.5 212.5 132.5C 212.973 133.906 213.973 134.573 215.5 134.5C 215.833 135.5 216.5 136.167 217.5 136.5C 217.973 137.906 218.973 138.573 220.5 138.5C 221.167 139.833 222.167 140.833 223.5 141.5C 224.585 143.587 226.251 144.92 228.5 145.5C 233.5 151.167 238.833 156.5 244.5 161.5C 244.833 240.668 244.499 319.668 243.5 398.5C 243.5 397.833 243.167 397.5 242.5 397.5C 242.027 396.094 241.027 395.427 239.5 395.5C 239.5 394.833 239.167 394.5 238.5 394.5C 238.027 393.094 237.027 392.427 235.5 392.5C 235.027 391.094 234.027 390.427 232.5 390.5C 232.027 389.094 231.027 388.427 229.5 388.5C 229.027 387.094 228.027 386.427 226.5 386.5C 226.158 385.662 225.492 385.328 224.5 385.5C 224.027 384.094 223.027 383.427 221.5 383.5C 221.158 382.662 220.492 382.328 219.5 382.5C 217.664 380.412 215.331 379.079 212.5 378.5C 211.486 377.326 210.153 376.66 208.5 376.5C 208.158 375.662 207.492 375.328 206.5 375.5C 206.158 374.662 205.492 374.328 204.5 374.5C 204.158 373.662 203.492 373.328 202.5 373.5C 200.819 371.992 198.819 370.992 196.5 370.5C 195.22 369.069 193.553 368.402 191.5 368.5C 191.158 367.662 190.492 367.328 189.5 367.5C 188.22 366.069 186.553 365.402 184.5 365.5C 183.22 364.069 181.553 363.402 179.5 363.5C 178.791 362.596 177.791 362.263 176.5 362.5C 175.791 361.596 174.791 361.263 173.5 361.5C 172.791 360.596 171.791 360.263 170.5 360.5C 169.791 359.596 168.791 359.263 167.5 359.5C 166.791 358.596 165.791 358.263 164.5 358.5C 163.791 357.596 162.791 357.263 161.5 357.5C 158.911 356.134 156.078 355.134 153 354.5C 152.235 354.57 151.735 354.903 151.5 355.5C 149.901 355.768 148.568 355.434 147.5 354.5C 148.552 354.649 149.552 354.483 150.5 354C 141.824 351.146 133.158 349.646 124.5 349.5C 122.265 349.795 120.265 349.461 118.5 348.5C 125.134 348.323 125.134 347.823 118.5 347C 111.217 345.673 103.884 344.84 96.5 344.5C 93.0381 343.518 89.3714 343.185 85.5 343.5C 81.7016 342.517 77.7016 342.183 73.5 342.5C 73.5 256.5 73.5 170.5 73.5 84.5C 78.1667 84.5 82.8333 84.5 87.5 84.5zM423.5 84.5C 428.167 84.5 432.833 84.5 437.5 84.5C 437.5 170.5 437.5 256.5 437.5 342.5C 422.848 342.669 422.848 343.169 437.5 344C 429.855 344.887 422.189 345.387 414.5 345.5C 405.569 344.901 396.569 345.735 387.5 348C 389.134 348.494 390.801 348.66 392.5 348.5C 390.735 349.461 388.735 349.795 386.5 349.5C 385.903 348.861 385.07 348.528 384 348.5C 378.282 349.472 372.782 350.805 367.5 352.5C 365.073 352.523 362.74 353.023 360.5 354C 364.226 355.043 363.893 355.543 359.5 355.5C 359.265 354.903 358.765 354.57 358 354.5C 354.922 355.134 352.089 356.134 349.5 357.5C 348.209 357.263 347.209 357.596 346.5 358.5C 345.209 358.263 344.209 358.596 343.5 359.5C 342.209 359.263 341.209 359.596 340.5 360.5C 339.209 360.263 338.209 360.596 337.5 361.5C 336.209 361.263 335.209 361.596 334.5 362.5C 332.447 362.402 330.78 363.069 329.5 364.5C 328.209 364.263 327.209 364.596 326.5 365.5C 324.447 365.402 322.78 366.069 321.5 367.5C 320.508 367.328 319.842 367.662 319.5 368.5C 317.447 368.402 315.78 369.069 314.5 370.5C 313.508 370.328 312.842 370.662 312.5 371.5C 310.847 371.66 309.514 372.326 308.5 373.5C 307.508 373.328 306.842 373.662 306.5 374.5C 305.508 374.328 304.842 374.662 304.5 375.5C 303.508 375.328 302.842 375.662 302.5 376.5C 300.847 376.66 299.514 377.326 298.5 378.5C 295.669 379.079 293.336 380.412 291.5 382.5C 290.508 382.328 289.842 382.662 289.5 383.5C 287.973 383.427 286.973 384.094 286.5 385.5C 285.508 385.328 284.842 385.662 284.5 386.5C 282.973 386.427 281.973 387.094 281.5 388.5C 279.973 388.427 278.973 389.094 278.5 390.5C 276.973 390.427 275.973 391.094 275.5 392.5C 273.973 392.427 272.973 393.094 272.5 394.5C 271.833 394.5 271.5 394.833 271.5 395.5C 269.973 395.427 268.973 396.094 268.5 397.5C 267.833 397.5 267.5 397.833 267.5 398.5C 266.501 319.668 266.167 240.668 266.5 161.5C 272.167 156.5 277.5 151.167 282.5 145.5C 284.749 144.92 286.415 143.587 287.5 141.5C 288.5 141.167 289.167 140.5 289.5 139.5C 291.404 139.262 292.738 138.262 293.5 136.5C 294.167 136.5 294.5 136.167 294.5 135.5C 296.404 135.262 297.738 134.262 298.5 132.5C 299.167 132.5 299.5 132.167 299.5 131.5C 301.027 131.573 302.027 130.906 302.5 129.5C 304.027 129.573 305.027 128.906 305.5 127.5C 306.167 127.5 306.5 127.167 306.5 126.5C 308.027 126.573 309.027 125.906 309.5 124.5C 311.027 124.573 312.027 123.906 312.5 122.5C 314.674 122.25 316.341 121.25 317.5 119.5C 319.674 119.25 321.341 118.25 322.5 116.5C 325.331 115.921 327.664 114.588 329.5 112.5C 331.819 112.008 333.819 111.008 335.5 109.5C 337.153 109.34 338.486 108.674 339.5 107.5C 340.492 107.672 341.158 107.338 341.5 106.5C 344.241 106.293 346.574 105.293 348.5 103.5C 350.553 103.598 352.22 102.931 353.5 101.5C 355.403 101.204 357.07 100.537 358.5 99.5C 359.791 99.7373 360.791 99.404 361.5 98.5C 362.791 98.7373 363.791 98.404 364.5 97.5C 366.553 97.5979 368.22 96.9313 369.5 95.5C 371.099 95.7678 372.432 95.4345 373.5 94.5C 378.437 93.7388 383.103 92.4054 387.5 90.5C 391.893 90.5432 392.226 90.0432 388.5 89C 389.793 88.51 391.127 88.3433 392.5 88.5C 392.917 89.1239 393.584 89.4573 394.5 89.5C 397.029 89.0711 399.362 88.4045 401.5 87.5C 403.735 87.7947 405.735 87.4614 407.5 86.5C 410.385 86.8064 413.052 86.4731 415.5 85.5C 418.385 85.8064 421.052 85.4731 423.5 84.5zM93.5 364.5C 89.4862 364.334 85.4862 364.501 81.5 365C 91.8877 365.691 102.221 366.858 112.5 368.5C 113.726 368.48 114.726 368.147 115.5 367.5C 117.735 367.205 119.735 367.539 121.5 368.5C 119.801 368.34 118.134 368.506 116.5 369C 121.457 370.158 126.457 370.992 131.5 371.5C 132.919 372.451 134.585 372.784 136.5 372.5C 138.838 374.04 141.505 374.706 144.5 374.5C 146.515 375.924 148.848 376.59 151.5 376.5C 152.209 377.404 153.209 377.737 154.5 377.5C 155.568 378.434 156.901 378.768 158.5 378.5C 160.214 379.738 162.214 380.405 164.5 380.5C 165.209 381.404 166.209 381.737 167.5 381.5C 168.78 382.931 170.447 383.598 172.5 383.5C 173.209 384.404 174.209 384.737 175.5 384.5C 176.78 385.931 178.447 386.598 180.5 386.5C 180.842 387.338 181.508 387.672 182.5 387.5C 187.541 390.351 192.875 392.684 198.5 394.5C 199.058 395.79 200.058 396.623 201.5 397C 199.866 397.494 198.199 397.66 196.5 397.5C 194.5 396.167 192.5 396.167 190.5 397.5C 185.924 397.562 181.591 396.895 177.5 395.5C 179.527 395.662 181.527 395.495 183.5 395C 180.5 394.5 177.5 394 174.5 393.5C 173.274 393.52 172.274 393.853 171.5 394.5C 166.924 394.562 162.591 393.895 158.5 392.5C 160.527 392.662 162.527 392.495 164.5 392C 159.5 391.167 154.5 390.333 149.5 389.5C 148.274 389.52 147.274 389.853 146.5 390.5C 139.469 390.481 139.136 389.981 145.5 389C 143.527 388.505 141.527 388.338 139.5 388.5C 135.764 387.011 131.764 386.344 127.5 386.5C 106.745 382.438 85.7453 379.104 64.5 376.5C 61.9882 375.133 59.6548 375.466 57.5 377.5C 50.3371 382.467 49.6704 388.134 55.5 394.5C 55.9731 395.906 56.9731 396.573 58.5 396.5C 59.5676 397.434 60.901 397.768 62.5 397.5C 64.6074 398.468 66.9407 398.802 69.5 398.5C 82.621 401.244 95.9544 403.577 109.5 405.5C 110.726 405.48 111.726 405.147 112.5 404.5C 117.076 404.438 121.409 405.105 125.5 406.5C 123.473 406.338 121.473 406.505 119.5 407C 122.5 407.5 125.5 408 128.5 408.5C 129.726 408.48 130.726 408.147 131.5 407.5C 136.076 407.438 140.409 408.105 144.5 409.5C 136.5 409.833 136.5 410.167 144.5 410.5C 110.004 411.498 75.3373 411.832 40.5 411.5C 40.5 312.167 40.5 212.833 40.5 113.5C 44.1667 113.5 47.8333 113.5 51.5 113.5C 51.3333 196.167 51.5 278.834 52 361.5C 52.8333 26.834 53.3333 26.834 53.5 361.5C 67.0251 361.934 80.3585 362.934 93.5 364.5zM366.5 410.5C 373.531 410.481 373.864 409.981 367.5 409C 371.44 407.985 375.44 407.485 379.5 407.5C 380.274 408.147 381.274 408.48 382.5 408.5C 385.5 408 388.5 407.5 391.5 407C 389.527 406.505 387.527 406.338 385.5 406.5C 389.591 405.105 393.924 404.438 398.5 404.5C 399.274 405.147 400.274 405.48 401.5 405.5C 404.5 405 407.5 404.5 410.5 404C 408.527 403.505 406.527 403.338 404.5 403.5C 408.591 402.105 412.924 401.438 417.5 401.5C 418.274 402.147 419.274 402.48 420.5 402.5C 431.423 401.127 442.09 399.127 452.5 396.5C 454.027 396.573 455.027 395.906 455.5 394.5C 461.33 388.134 460.663 382.467 453.5 377.5C 451.345 375.466 449.012 375.133 446.5 376.5C 429.284 378.624 412.284 381.291 395.5 384.5C 391.78 384.564 388.114 385.064 384.5 386C 390.864 386.981 390.531 387.481 383.5 387.5C 379.423 386.318 375.423 386.651 371.5 388.5C 364.469 388.519 364.136 389.019 370.5 390C 368.527 390.495 366.527 390.662 364.5 390.5C 363.726 389.853 362.726 389.52 361.5 389.5C 356.5 390.333 351.5 391.167 346.5 392C 348.473 392.495 350.473 392.662 352.5 392.5C 348.409 393.895 344.076 394.562 339.5 394.5C 338.726 393.853 337.726 393.52 336.5 393.5C 333.5 394 330.5 394.5 327.5 395C 329.473 395.495 331.473 395.662 333.5 395.5C 329.409 396.895 325.076 397.562 320.5 397.5C 318.5 396.167 316.5 396.167 314.5 397.5C 312.801 397.66 311.134 397.494 309.5 397C 310.942 396.623 311.942 395.79 312.5 394.5C 318.125 392.684 323.459 390.351 328.5 387.5C 332.127 386.679 335.46 385.346 338.5 383.5C 340.553 383.598 342.22 382.931 343.5 381.5C 344.791 381.737 345.791 381.404 346.5 380.5C 348.786 380.405 350.786 379.738 352.5 378.5C 354.099 378.768 355.432 378.434 356.5 377.5C 359.899 376.984 363.232 376.15 366.5 375C 365.552 374.517 364.552 374.351 363.5 374.5C 365.527 372.912 367.861 372.412 370.5 373C 369.5 373.333 368.5 373.667 367.5 374C 370.139 374.588 372.473 374.088 374.5 372.5C 376.415 372.784 378.081 372.451 379.5 371.5C 392.109 369.343 404.775 367.51 417.5 366C 414.518 365.502 411.518 365.335 408.5 365.5C 424.609 363.22 440.942 361.887 457.5 361.5C 457.667 26.834 458.167 26.834 459 361.5C 459.5 278.834 459.667 196.167 459.5 113.5C 463.167 113.5 466.833 113.5 470.5 113.5C 470.5 212.833 470.5 312.167 470.5 411.5C 435.663 411.832 400.996 411.498 366.5 410.5zM85.5 343.5C 88.9619 344.482 92.6286 344.815 96.5 344.5C 96.5 344.833 96.5 345.167 96.5 345.5C 88.8114 345.387 81.1447 344.887 73.5 344C 77.4862 343.501 81.4862 343.334 85.5 343.5zM395.5 384.5C 397.833 384.5 400.167 384.5 402.5 384.5C 398.727 385.958 394.727 386.458 390.5 386C 392.382 385.802 394.048 385.302 395.5 384.5zM208.5 399.5C 204.446 400.496 200.446 400.162 196.5 398.5C 198.792 398.756 200.959 398.423 203 397.5C 204.401 399.192 206.234 399.859 208.5 399.5zM157.5 411.5C 161.835 411.917 166.168 412.417 170.5 413C 127.167 413.667 83.8333 413.667 40.5 413C 79.6688 412.833 118.669 412.333 157.5 411.5zM348.5 411.5C 389.148 412.305 429.815 412.805 470.5 413C 427.167 413.667 383.833 413.667 340.5 413C 343.365 412.817 346.031 412.317 348.5 411.5z" stroke="none" fill="#000000" fill-rule="nonzero" fill-opacity="0.8745098" />
	</g>
	<g>
        <path d="M89.5 64.5C 94.7027 63.3752 100.036 63.5419 105.5 65C 103.19 65.4966 100.857 65.6633 98.5 65.5C 95.7131 64.5233 92.7131 64.19 89.5 64.5z" stroke="none" fill="#000000" fill-rule="nonzero" fill-opacity="0.007843138" />
	</g>
	<g>
        <path d="M421.5 64.5C 418.287 64.19 415.287 64.5233 412.5 65.5C 410.143 65.6633 407.81 65.4966 405.5 65C 410.964 63.5419 416.297 63.3752 421.5 64.5z" stroke="none" fill="#000000" fill-rule="nonzero" fill-opacity="0.007843138" />
	</g>
	<g>
        <path d="M18.5 93.5C 19.6659 205.999 19.8326 318.666 19 431.5C 18.5 318.834 18.3333 206.167 18.5 93.5z" stroke="none" fill="#000000" fill-rule="nonzero" fill-opacity="0.015686275" />
	</g>
	<g>
        <path d="M491.5 93.5C 492.666 205.999 492.833 318.666 492 431.5C 491.5 318.834 491.333 206.167 491.5 93.5z" stroke="none" fill="#000000" fill-rule="nonzero" fill-opacity="0.015686275" />
	</g>
	<g>
        <path d="M303.5 127.5C 304.167 127.5 304.833 127.5 305.5 127.5C 305.027 128.906 304.027 129.573 302.5 129.5C 302.5 129.167 302.5 128.833 302.5 128.5C 303.167 128.5 303.5 128.167 303.5 127.5z" stroke="none" fill="#000000" fill-rule="nonzero" fill-opacity="0.007843138" />
	</g>
	<g>
        <path d="M127.5 387.5C 127.5 387.167 127.5 386.833 127.5 386.5C 131.764 386.344 135.764 387.011 139.5 388.5C 137.5 388.5 135.5 388.5 133.5 388.5C 131.735 387.539 129.735 387.205 127.5 387.5z" stroke="none" fill="#000000" fill-rule="nonzero" fill-opacity="0.007843138" />
	</g>
	<g>
        <path d="M383.5 387.5C 381.265 387.205 379.265 387.539 377.5 388.5C 375.5 388.5 373.5 388.5 371.5 388.5C 375.423 386.651 379.423 386.318 383.5 387.5z" stroke="none" fill="#000000" fill-rule="nonzero" fill-opacity="0.007843138" />
	</g>
	<g>
        <path d="M279.5 435.5C 279.833 435.5 280.167 435.5 280.5 435.5C 280.672 436.492 280.338 437.158 279.5 437.5C 279.5 436.833 279.5 436.167 279.5 435.5z" stroke="none" fill="#000000" fill-rule="nonzero" fill-opacity="0.011764706" />
	</g>
	<g>
        <path d="M278.5 437.5C 278.833 437.5 279.167 437.5 279.5 437.5C 279.672 438.492 279.338 439.158 278.5 439.5C 278.5 438.833 278.5 438.167 278.5 437.5z" stroke="none" fill="#000000" fill-rule="nonzero" />
	</g>
	<g>
        <path d="M275.5 442.5C 275.833 442.5 276.167 442.5 276.5 442.5C 276.315 443.17 275.981 443.17 275.5 442.5z" stroke="none" fill="#000000" fill-rule="nonzero" fill-opacity="0.007843138" />
	</g>
	<g>
        <path d="M265.5 448.5C 265.5 448.167 265.5 447.833 265.5 447.5C 266.833 447.5 268.167 447.5 269.5 447.5C 268.432 448.434 267.099 448.768 265.5 448.5z" stroke="none" fill="#000000" fill-rule="nonzero" fill-opacity="0.007843138" />
	</g>
	<g>
        <path d="M265.5 448.5C 259.013 449.654 252.346 449.821 245.5 449C 252.158 448.5 258.825 448.334 265.5 448.5z" stroke="none" fill="#000000" fill-rule="nonzero" />
	</g>
</g>
</svg>