<?xml version="1.0" standalone="no"?>
<!DOCTYPE svg PUBLIC "-//W3C//DTD SVG 1.0//EN" "http://www.w3.org/TR/2001/REC-SVG-20010904/DTD/svg10.dtd">
<svg xmlns="http://www.w3.org/2000/svg" xmlns:xlink="http://www.w3.org/1999/xlink" id="body_1" width="200" height="200">

<g transform="matrix(0.390625 0 0 0.390625 0 0)">
	<g>
        <path d="M368.5 -0.5C 378.5 -0.5 388.5 -0.5 398.5 -0.5C 442.434 7.23025 472.6 31.8969 489 73.5C 503.363 124.07 490.529 166.237 450.5 200C 415.834 223.707 378.834 228.04 339.5 213C 333.906 210.287 328.406 207.453 323 204.5C 310.441 209.863 297.941 215.363 285.5 221C 275.279 222.779 271.112 218.613 273 208.5C 278.637 196.059 284.137 183.559 289.5 171C 270.581 138.34 267.415 104.174 280 68.5C 297.424 29.8988 326.924 6.8988 368.5 -0.5z" stroke="none" fill="#3D9AE2" fill-rule="nonzero" fill-opacity="0.9647059" />
	</g>
	<g>
        <path d="M372.5 16.5C 419.867 14.7499 453.033 35.4165 472 78.5C 483.834 118.653 474.667 153.153 444.5 182C 406.432 210.43 367.432 211.763 327.5 186C 326.333 185.833 325.167 185.667 324 185.5C 315.579 188.125 307.412 191.458 299.5 195.5C 299.167 195.167 298.833 194.833 298.5 194.5C 302.622 186.462 305.956 178.129 308.5 169.5C 304.708 161.917 300.875 154.25 297 146.5C 282.161 105.027 290.661 69.1933 322.5 39C 337.252 27.1426 353.918 19.6426 372.5 16.5z" stroke="none" fill="#BCDAFE" fill-rule="nonzero" />
	</g>
	<g>
        <path d="M392.5 64.5C 397.816 66.8236 403.149 69.1569 408.5 71.5C 397 99.8333 385.5 128.167 374 156.5C 368.69 154.454 363.524 152.12 358.5 149.5C 369.841 121.138 381.174 92.8045 392.5 64.5z" stroke="none" fill="#3F9BE2" fill-rule="nonzero" />
	</g>
	<g>
        <path d="M342.5 79.5C 347.239 82.7308 351.572 86.5642 355.5 91C 348.985 97.3478 342.652 103.848 336.5 110.5C 342.652 117.152 348.985 123.652 355.5 130C 351.652 134.016 347.652 137.849 343.5 141.5C 334.514 133.014 325.681 124.348 317 115.5C 315.543 112.634 315.21 109.634 316 106.5C 325.036 97.6317 333.869 88.6317 342.5 79.5z" stroke="none" fill="#3E9AE2" fill-rule="nonzero" />
	</g>
	<g>
        <path d="M422.5 79.5C 432.413 87.9085 441.913 96.9085 451 106.5C 451.79 109.634 451.457 112.634 450 115.5C 441.319 124.348 432.486 133.014 423.5 141.5C 419.348 137.849 415.348 134.016 411.5 130C 418.015 123.652 424.348 117.152 430.5 110.5C 424.348 103.848 418.015 97.3478 411.5 91C 415.37 87.2977 419.037 83.4643 422.5 79.5z" stroke="none" fill="#3E9AE2" fill-rule="nonzero" />
	</g>
	<g>
        <path d="M302.5 511.5C 208.5 511.5 114.5 511.5 20.5 511.5C 19.5423 510.038 18.3756 508.705 17 507.5C 16.3333 490.167 16.3333 472.833 17 455.5C 27.3607 398.806 61.0274 366.139 118 357.5C 118.667 349.833 118.667 342.167 118 334.5C 99.3631 321.888 90.8631 304.222 92.5 281.5C 79.7635 280.387 71.5969 273.721 68 261.5C 67.3333 238.5 67.3333 215.5 68 192.5C 78.3472 141.157 109.681 113.49 162 109.5C 205.148 112.228 234.815 133.562 251 173.5C 252.965 179.361 254.298 185.361 255 191.5C 255.667 215.167 255.667 238.833 255 262.5C 251.217 274.476 243.051 280.809 230.5 281.5C 232.152 304.192 223.652 321.858 205 334.5C 204.333 342.167 204.333 349.833 205 357.5C 261.069 365.901 294.735 397.901 306 453.5C 307.483 470.475 307.816 487.475 307 504.5C 306.096 507.233 304.596 509.567 302.5 511.5zM192.5 203.5C 197.693 212.199 204.193 219.866 212 226.5C 212.667 248.5 212.667 270.5 212 292.5C 209.167 310 199 320.167 181.5 323C 168.5 323.667 155.5 323.667 142.5 323C 123.544 320.378 113.044 309.544 111 290.5C 110.5 272.836 110.333 255.17 110.5 237.5C 136.717 233.707 161.05 224.874 183.5 211C 186.69 208.636 189.69 206.136 192.5 203.5zM90.5 247.5C 91.8117 249.743 92.4783 252.41 92.5 255.5C 92.1667 258.167 91.8333 260.833 91.5 263.5C 83.9021 258.589 83.5687 253.256 90.5 247.5zM230.5 247.5C 237.239 249.653 239.073 253.986 236 260.5C 234.758 261.872 233.258 262.872 231.5 263.5C 230.505 258.208 230.172 252.875 230.5 247.5zM136.5 340.5C 153.167 341.833 169.833 341.833 186.5 340.5C 186.666 348.174 186.5 355.841 186 363.5C 178.062 373.723 169.895 383.723 161.5 393.5C 153.174 383.67 145.008 373.67 137 363.5C 136.5 355.841 136.334 348.174 136.5 340.5zM127.5 382.5C 134.583 390.43 141.583 398.597 148.5 407C 143.348 411.408 138.015 415.575 132.5 419.5C 131.201 418.91 130.368 417.91 130 416.5C 127.024 408.57 123.858 400.736 120.5 393C 123.216 389.729 125.549 386.229 127.5 382.5zM194.5 382.5C 197.879 385.567 200.546 389.234 202.5 393.5C 199.215 402.364 195.548 411.031 191.5 419.5C 185.677 415.83 180.344 411.664 175.5 407C 181.652 398.683 187.985 390.516 194.5 382.5z" stroke="none" fill="#3D9AE2" fill-rule="nonzero" fill-opacity="0.96862745" />
	</g>
	<g>
        <path d="M87.5 230.5C 85.5216 219.215 84.8549 207.548 85.5 195.5C 91.2451 160.583 111.245 138.417 145.5 129C 185.889 123.609 215.056 139.109 233 175.5C 237.705 187.566 239.539 200.066 238.5 213C 238.167 219.167 237.833 225.333 237.5 231.5C 234.916 230.607 232.249 230.274 229.5 230.5C 232.248 220.532 228.914 213.698 219.5 210C 212.1 202.044 206.6 192.878 203 182.5C 200.293 178.965 196.793 177.798 192.5 179C 176.437 196.539 156.77 208.206 133.5 214C 121.965 217.291 110.298 219.957 98.5 222C 95.3249 223.995 93.6583 226.828 93.5 230.5C 91.5 230.5 89.5 230.5 87.5 230.5z" stroke="none" fill="#BCDAFE" fill-rule="nonzero" />
	</g>
	<g>
        <path d="M85.5 195.5C 84.8549 207.548 85.5216 219.215 87.5 230.5C 86.791 231.404 85.791 231.737 84.5 231.5C 84.1716 219.322 84.5049 207.322 85.5 195.5z" stroke="none" fill="#8CC2F4" fill-rule="nonzero" />
	</g>
	<g>
        <path d="M135.5 237.5C 143.657 239.123 146.49 243.79 144 251.5C 138.667 256.833 133.333 256.833 128 251.5C 125.684 244.033 128.184 239.366 135.5 237.5z" stroke="none" fill="#3C99E1" fill-rule="nonzero" fill-opacity="0.92156863" />
	</g>
	<g>
        <path d="M186.5 237.5C 195.196 239.245 197.863 244.245 194.5 252.5C 191.376 255.356 187.709 256.189 183.5 255C 178.391 251.634 177.224 247.134 180 241.5C 181.792 239.372 183.958 238.039 186.5 237.5z" stroke="none" fill="#3D9AE2" fill-rule="nonzero" fill-opacity="0.91764706" />
	</g>
	<g>
        <path d="M213.5 376.5C 253.103 386.269 277.936 410.936 288 450.5C 289.394 465.122 289.894 479.789 289.5 494.5C 204.167 494.5 118.833 494.5 33.5 494.5C 28.6582 460.51 37.1582 430.51 59 404.5C 72.7571 389.706 89.5904 380.872 109.5 378C 107.457 381.253 105.29 384.42 103 387.5C 102.333 390.5 102.333 393.5 103 396.5C 108.333 409.833 113.667 423.167 119 436.5C 122.053 443.777 126.886 445.277 133.5 441C 142.752 433.793 152.252 426.96 162 420.5C 171.438 426.934 180.605 433.767 189.5 441C 193.803 444.422 197.97 444.256 202 440.5C 208.529 425.247 214.862 409.914 221 394.5C 221.667 392.833 221.667 391.167 221 389.5C 218.477 385.112 215.977 380.778 213.5 376.5zM127.5 382.5C 125.549 386.229 123.216 389.729 120.5 393C 123.858 400.736 127.024 408.57 130 416.5C 130.368 417.91 131.201 418.91 132.5 419.5C 138.015 415.575 143.348 411.408 148.5 407C 141.583 398.597 134.583 390.43 127.5 382.5zM194.5 382.5C 187.985 390.516 181.652 398.683 175.5 407C 180.344 411.664 185.677 415.83 191.5 419.5C 195.548 411.031 199.215 402.364 202.5 393.5C 200.546 389.234 197.879 385.567 194.5 382.5z" stroke="none" fill="#BCDAFE" fill-rule="nonzero" />
	</g>
</g>
</svg>