<?xml version="1.0" encoding="UTF-8"?>
<!DOCTYPE svg PUBLIC "-//W3C//DTD SVG 1.1//EN" "http://www.w3.org/Graphics/SVG/1.1/DTD/svg11.dtd">
<svg xmlns="http://www.w3.org/2000/svg" version="1.1" width="800px" height="800px" style="shape-rendering:geometricPrecision; text-rendering:geometricPrecision; image-rendering:optimizeQuality; fill-rule:evenodd; clip-rule:evenodd" xmlns:xlink="http://www.w3.org/1999/xlink">
<g><path style="opacity:1" fill="#fefefe" d="M -0.5,-0.5 C 266.167,-0.5 532.833,-0.5 799.5,-0.5C 799.5,266.167 799.5,532.833 799.5,799.5C 532.833,799.5 266.167,799.5 -0.5,799.5C -0.5,532.833 -0.5,266.167 -0.5,-0.5 Z"/></g>
<g><path style="opacity:1" fill="#bee3ec" d="M 491.5,388.5 C 489.08,410.293 480.08,428.793 464.5,444C 458.85,448.655 452.517,451.988 445.5,454C 422.5,454.333 399.5,454.667 376.5,455C 368.794,455.348 362.794,458.515 358.5,464.5C 357.883,464.389 357.383,464.056 357,463.5C 344.939,472.948 331.439,479.281 316.5,482.5C 316.402,478.75 317.569,475.417 320,472.5C 324.806,465.727 329.972,459.227 335.5,453C 317.245,455.792 300.245,452.459 284.5,443C 278.173,437.519 274.007,430.686 272,422.5C 266.437,396.653 270.77,372.653 285,350.5C 292.169,342.659 301.002,337.493 311.5,335C 320.434,333.183 329.434,331.849 338.5,331C 377.703,329.295 416.703,331.295 455.5,337C 480.397,344.91 492.397,362.076 491.5,388.5 Z"/></g>
<g><path style="opacity:1" fill="#5491ab" d="M 351.5,388.5 C 359.302,388.787 361.302,392.287 357.5,399C 352.848,400.193 348.681,399.36 345,396.5C 346.145,393.17 348.312,390.503 351.5,388.5 Z"/></g>
<g><path style="opacity:1" fill="#5591ab" d="M 375.5,388.5 C 383.019,388.015 385.686,391.349 383.5,398.5C 379.61,400.054 375.943,399.721 372.5,397.5C 371.369,395.926 371.202,394.259 372,392.5C 373.376,391.295 374.542,389.962 375.5,388.5 Z"/></g>
<g><path style="opacity:1" fill="#5692ac" d="M 400.5,387.5 C 409.751,388.504 411.418,392.337 405.5,399C 398.244,401.626 395.078,399.126 396,391.5C 397.667,390.267 399.167,388.933 400.5,387.5 Z"/></g>
<g><path style="opacity:1" fill="#98d4df" d="M 491.5,388.5 C 508.075,388.879 524.408,391.045 540.5,395C 556.193,400.487 566.36,411.32 571,427.5C 577.839,447.084 578.173,466.751 572,486.5C 567.482,497.194 559.649,504.36 548.5,508C 535.98,511.309 523.314,512.309 510.5,511C 518.52,519.537 525.187,529.037 530.5,539.5C 530.291,540.086 529.957,540.586 529.5,541C 512.116,536.474 496.449,528.474 482.5,517C 479.911,515.803 477.244,514.803 474.5,514C 455.027,512.205 435.527,512.039 416,513.5C 398.404,513.869 384.07,507.202 373,493.5C 366.184,484.844 361.351,475.177 358.5,464.5C 362.794,458.515 368.794,455.348 376.5,455C 399.5,454.667 422.5,454.333 445.5,454C 452.517,451.988 458.85,448.655 464.5,444C 480.08,428.793 489.08,410.293 491.5,388.5 Z"/></g>
</svg>
